<svg xmlns="http://www.w3.org/2000/svg" viewBox="0 0 1584 396" width="1584" height="396">
  <defs>
    <radialGradient id="light-main" cx="68%" cy="45%" r="55%">
      <stop offset="0%"  stop-color="rgba(115,179,146,0.38)"/>
      <stop offset="35%" stop-color="rgba(45,95,63,0.22)"/>
      <stop offset="70%" stop-color="rgba(10,20,16,0.05)"/>
      <stop offset="100%" stop-color="transparent"/>
    </radialGradient>
    <radialGradient id="light-gold" cx="88%" cy="15%" r="35%">
      <stop offset="0%"  stop-color="rgba(212,175,55,0.25)"/>
      <stop offset="50%" stop-color="rgba(212,175,55,0.08)"/>
      <stop offset="100%" stop-color="transparent"/>
    </radialGradient>
    <radialGradient id="light-deep" cx="35%" cy="90%" r="40%">
      <stop offset="0%"  stop-color="rgba(45,95,63,0.30)"/>
      <stop offset="100%" stop-color="transparent"/>
    </radialGradient>
    <radialGradient id="ng1" cx="50%" cy="50%" r="50%">
      <stop offset="0%"  stop-color="rgba(115,179,146,1)"/>
      <stop offset="30%" stop-color="rgba(115,179,146,0.5)"/>
      <stop offset="100%" stop-color="transparent"/>
    </radialGradient>
    <radialGradient id="ng2" cx="50%" cy="50%" r="50%">
      <stop offset="0%"  stop-color="rgba(212,175,55,1)"/>
      <stop offset="30%" stop-color="rgba(212,175,55,0.4)"/>
      <stop offset="100%" stop-color="transparent"/>
    </radialGradient>
    <filter id="glow-strong">
      <feGaussianBlur stdDeviation="8" result="blur"/>
      <feMerge><feMergeNode in="blur"/><feMergeNode in="SourceGraphic"/></feMerge>
    </filter>
  </defs>

  <rect width="1584" height="396" fill="#090E0C"/>
  <rect width="1584" height="396" fill="url(#light-main)"/>
  <rect width="1584" height="396" fill="url(#light-gold)"/>
  <rect width="1584" height="396" fill="url(#light-deep)"/>

  <g fill="none" stroke-linecap="round">
    <path d="M420,10 Q750,70 950,50 T1350,30 T1600,10"   stroke="rgba(115,179,146,0.22)" stroke-width="1.4"/>
    <path d="M420,90 Q680,150 880,120 T1250,100 T1600,70" stroke="rgba(90,153,117,0.15)"  stroke-width="1"/>
    <path d="M820,400 Q840,280 930,170 T1010,50 T1060,-10" stroke="rgba(212,175,55,0.14)" stroke-width="1"/>
    <path d="M1080,400 Q1100,260 1160,150 T1210,40 T1230,-10" stroke="rgba(115,179,146,0.16)" stroke-width="0.9"/>
    <path d="M1320,400 Q1340,260 1400,140 T1450,30 T1470,-10" stroke="rgba(45,95,63,0.18)" stroke-width="1.1"/>
    <path d="M420,310 Q620,260 780,280 T1080,250 T1380,210" stroke="rgba(115,179,146,0.11)" stroke-width="0.8"/>
    <path d="M650,170 Q800,140 960,155 T1200,145" stroke="rgba(115,179,146,0.18)" stroke-width="0.9"/>
  </g>

  <g filter="url(#glow-strong)">
    <circle cx="950"  cy="50"  r="16" fill="url(#ng1)" opacity="0.85"/>
    <circle cx="1160" cy="150" r="13" fill="url(#ng1)" opacity="0.65"/>
    <circle cx="1400" cy="140" r="10" fill="url(#ng2)" opacity="0.75"/>
    <circle cx="1080" cy="250" r="11" fill="url(#ng1)" opacity="0.55"/>
    <circle cx="780"  cy="280" r="8"  fill="url(#ng1)" opacity="0.50"/>
    <circle cx="960"  cy="155" r="9"  fill="url(#ng1)" opacity="0.60"/>
    <circle cx="1200" cy="145" r="7"  fill="url(#ng2)" opacity="0.65"/>
  </g>
  <circle cx="950"  cy="50"  r="3"   fill="rgba(115,179,146,0.95)"/>
  <circle cx="1160" cy="150" r="2.5" fill="rgba(115,179,146,0.85)"/>
  <circle cx="1400" cy="140" r="2.5" fill="rgba(212,175,55,0.90)"/>
  <circle cx="1080" cy="250" r="2"   fill="rgba(115,179,146,0.75)"/>
  <circle cx="780"  cy="280" r="2"   fill="rgba(115,179,146,0.65)"/>
  <circle cx="960"  cy="155" r="2"   fill="rgba(115,179,146,0.80)"/>
  <circle cx="1200" cy="145" r="1.8" fill="rgba(212,175,55,0.85)"/>
</svg>
